<svg width="685" height="480" xmlns="http://www.w3.org/2000/svg" xmlns:svg="http://www.w3.org/2000/svg">
 <g>
  <title>Layer 1</title>
  <g id="svg_1">
   <path id="svg_2" d="m644.866699,32.300003l-276.000031,223.300003c-14.700012,12 -38.799988,12 -53.5,0l-275.999989,-223.300003c-9.400002,-7.600006 -26.200005,-1 -26.200005,12.800003l0,389.700043c0,18.899963 15.5,34.399963 34.400002,34.399963l590.300022,0c18.899963,0 34.399963,-15.5 34.399963,-34.399963l0,-389.700043c-0.099976,-15.400009 -16.299988,-21.700012 -27.399963,-12.800003z" fill="white"/>
   <path id="svg_3" d="m83.066666,32.300003l233.099991,188.499985c14.700012,11.800018 38.799988,11.800018 53.5,0l233.000031,-188.499985c14.700012,-11.800003 11.299988,-21.600006 -7.599976,-21.600006l-504.40004,0c-19.100006,0.100006 -22.300003,9.800003 -7.600006,21.600006z" fill="white"/>
  </g>
 </g>
</svg>