<?xml version="1.0" encoding="utf-8"?>
<!DOCTYPE svg PUBLIC "-//W3C//DTD SVG 1.1//EN" "http://www.w3.org/Graphics/SVG/1.1/DTD/svg11.dtd">
<svg version="1.1" id="Capa_1" xmlns="http://www.w3.org/2000/svg" xmlns:xlink="http://www.w3.org/1999/xlink" x="0px" y="0px"
	 width="64px" height="64px" viewBox="0 0 64 64" enable-background="new 0 0 64 64" xml:space="preserve">
<path d="M42.219,1H21.781c-3.584,0-6.5,2.893-6.5,6.449v47.113c0,3.554,2.916,6.448,6.5,6.448h20.438
	c3.584,0,6.501-2.894,6.501-6.448V7.449C48.72,3.893,45.803,1,42.219,1z M46.572,54.562c0,2.37-1.952,4.299-4.352,4.299H21.781
	c-2.399,0-4.351-1.929-4.351-4.299V7.449h0.001c0-2.371,1.952-4.299,4.351-4.299H42.22c2.399,0,4.352,1.928,4.352,4.299V54.562z
	 M44.361,7.315h-24.72c-0.297,0-0.537,0.24-0.537,0.537v41.753c0,0.296,0.24,0.538,0.537,0.538h24.72
	c0.297,0,0.538-0.241,0.538-0.538V7.852C44.899,7.555,44.658,7.315,44.361,7.315z M43.824,49.067H20.178V8.389h23.646V49.067z
	 M32.001,51.038c-1.811,0-3.285,1.473-3.285,3.284c0,1.811,1.474,3.284,3.285,3.284c1.811,0,3.283-1.474,3.283-3.284
	C35.284,52.511,33.812,51.038,32.001,51.038z M32.001,56.531c-1.219,0-2.21-0.991-2.21-2.209c0-1.218,0.991-2.21,2.21-2.21
	c1.218,0,2.209,0.992,2.209,2.21C34.21,55.54,33.219,56.531,32.001,56.531z M28.447,5.204c0-0.219,0.214-0.396,0.478-0.396h6.151
	c0.264,0,0.477,0.177,0.477,0.396S35.34,5.6,35.076,5.6h-6.151C28.662,5.6,28.448,5.423,28.447,5.204z"/>
</svg>
