<svg width="24" height="36" xmlns="http://www.w3.org/2000/svg" xmlns:svg="http://www.w3.org/2000/svg">
 <g>
  <title>Layer 1</title>
  <g id="svg_1">
   <path id="svg_2" fill="#010101" d="m12.099404,7.973805l0,-3.167c0,-0.155 -0.086,-0.297 -0.226999,-0.372c-0.139,-0.074 -0.305,-0.066 -0.434,0.021l-8.750001,5.889c-0.117,0.080999 -0.186,0.210999 -0.186,0.351c0,0.139999 0.068,0.273 0.186,0.351l8.745999,5.888001c0.131001,0.086998 0.295,0.095997 0.436001,0.025c0.136999,-0.075001 0.225,-0.219 0.225,-0.375l0,-3.405001c1.376999,0.009999 2.511999,0.068999 3.462999,0.183c4.551002,0.542 5.768003,3.271998 5.818,3.388001c0.063999,0.157999 0.221001,0.256998 0.389,0.256998c0.025,0 0.055,-0.000999 0.082001,-0.007999c0.196999,-0.039001 0.34,-0.212002 0.34,-0.412998c0.000002,-6.897002 -8.189,-8.366002 -10.088,-8.613002z"/>
   <path id="svg_3" fill="#010101" d="m21.167406,25.606804l-8.748,-5.887001c-0.127001,-0.086998 -0.293001,-0.097 -0.434,-0.025997c-0.137001,0.076 -0.223001,0.219 -0.223001,0.375l0,3.404999c-1.379,-0.009998 -2.514,-0.069 -3.462999,-0.182999c-4.552999,-0.542 -5.77,-3.272003 -5.818,-3.388c-0.066,-0.158001 -0.223,-0.257 -0.389,-0.257c-0.027,0 -0.057,0.000998 -0.084,0.007998c-0.197001,0.039003 -0.34,0.212002 -0.34,0.414003c0,6.896 8.189,8.365997 10.089999,8.614l0,3.167c0,0.154001 0.084,0.296999 0.225,0.372c0.139,0.073997 0.305,0.065998 0.434,-0.020996l8.750001,-5.889004c0.116999,-0.081001 0.186001,-0.211002 0.186001,-0.351c0,-0.142 -0.068003,-0.276003 -0.186001,-0.353003z"/>
  </g>
 </g>
</svg>