<svg width="16" height="20" xmlns="http://www.w3.org/2000/svg" xmlns:svg="http://www.w3.org/2000/svg">
 <g>
  <title>Layer 1</title>
  <g id="svg_1">
   <path id="svg_2" d="m7.98394,4.40358c-4.124,0 -7.467,3.343 -7.467,7.467s3.344,7.466 7.467,7.466s7.467,-3.343 7.467,-7.467s-3.343,-7.466 -7.467,-7.466zm0,13.933c-3.566,0 -6.467,-2.9 -6.467,-6.467s2.901,-6.467 6.467,-6.467s6.467,2.902 6.467,6.467c0,3.565 -2.9,6.467 -6.467,6.467z" fill="white"/>
   <path id="svg_3" d="m8.30594,9.48658c-0.098,-0.098 -0.226,-0.146 -0.355,-0.146s-0.257,0.048 -0.355,0.146l-3.243,3.243c-0.195,0.195 -0.195,0.512 0,0.707c0.195,0.195 0.512,0.195 0.707,0l2.891,-2.891l2.891,2.891c0.195,0.195 0.512,0.195 0.707,0s0.195,-0.512 0,-0.707l-3.243,-3.243z" fill="white"/>
  </g>
 </g>
</svg>