<svg width="600" height="600" xmlns="http://www.w3.org/2000/svg" xmlns:svg="http://www.w3.org/2000/svg">
 <g>
  <title>Layer 1</title>
  <path fill="white" id="svg_1" d="m586.645325,463.338654c1.223999,9.383972 -1.633972,17.544006 -8.567993,24.47998l-81.395966,80.782074c-3.672028,4.079956 -8.466003,7.549988 -14.382019,10.403992c-5.915985,2.855957 -11.729004,4.691956 -17.440002,5.507996c-0.40799,0 -1.634003,0.104004 -3.673981,0.307983c-2.038025,0.203979 -4.690002,0.30603 -7.95401,0.30603c-7.752991,0 -20.299988,-1.32605 -37.640015,-3.978027c-17.339996,-2.651978 -38.556,-9.182007 -63.645996,-19.583984c-25.093994,-10.403992 -53.552002,-26.012024 -85.375,-46.817993s-65.688004,-49.368073 -101.59201,-85.680023c-28.559998,-28.152039 -52.223991,-55.080048 -70.991989,-80.784027s-33.864002,-49.470001 -45.288002,-71.298004c-11.425011,-21.828003 -19.993008,-41.615997 -25.705009,-59.363983s-9.587998,-33.048004 -11.627999,-45.899994c-2.039999,-12.85199 -2.855999,-22.950012 -2.448,-30.293991c0.408001,-7.344009 0.612,-11.423996 0.612,-12.240005c0.816,-5.711998 2.652,-11.526009 5.508001,-17.442009s6.323998,-10.709991 10.404,-14.381989l81.396008,-81.396011c5.711998,-5.711998 12.239998,-8.568001 19.583992,-8.568001c5.303993,0 9.995995,1.530006 14.075996,4.590004s7.548004,6.834 10.404007,11.321999l65.483994,124.235992c3.671997,6.528015 4.692001,13.667999 3.059998,21.420029c-1.631989,7.751968 -5.099991,14.279984 -10.403992,19.583969l-29.988007,29.988007c-0.815994,0.816025 -1.529999,2.141998 -2.141998,3.977997c-0.612,1.835999 -0.917999,3.365997 -0.917999,4.589996c1.632004,8.567993 5.304001,18.360016 11.016006,29.376007c4.895996,9.791992 12.444,21.725983 22.643997,35.802002c10.199997,14.075989 24.68399,30.294006 43.451996,48.652985c18.360031,18.769012 34.680008,33.354004 48.960007,43.759003c14.278015,10.402008 26.21402,18.054016 35.802002,22.950012c9.588013,4.895996 16.932007,7.854004 22.032013,8.871979l7.64798,1.530029c0.81601,0 2.144012,-0.30603 3.979004,-0.91803s3.162018,-1.325989 3.977997,-2.141998l34.884003,-35.495972c7.346008,-6.528015 15.912018,-9.792023 25.70401,-9.792023c6.937988,0 12.444,1.223999 16.523987,3.671997l0.612,0l118.113953,69.768005c8.571045,5.30603 13.671021,12.038025 15.30304,20.197998z"/>
 </g>
</svg>