<svg width="64" xmlns="http://www.w3.org/2000/svg" height="64" viewBox="0 0 64 64" xmlns:xlink="http://www.w3.org/1999/xlink" enable-background="new 0 0 64 64">
<path d="m6.818,19.086v23.221c0,2.746 2.251,4.981 5.018,4.981h14.516c-.001,.091-.006,.181 .021,.272 .005,.02 .515,1.966-.544,3.604-.108,.168-.143,.356-.142,.543h-3.87c-.405,0-.733,.462-.733,1.031 0,.569 .328,1.032 .733,1.032h20.366c.404,0 .733-.463 .733-1.032 0-.569-.329-1.031-.733-1.031h-3.701c.001-.187-.033-.375-.142-.543-1.056-1.633-.553-3.57-.543-3.607 .025-.09 .02-.18 .02-.269h14.346c2.768,0 5.019-2.234 5.019-4.981v-23.221c0-2.746-2.252-4.98-5.019-4.98h-40.327c-2.767,0-5.018,2.234-5.018,4.98zm29.534,32.62h-8.537c.935-1.847 .685-3.731 .544-4.419h7.449c-.14,.688-.39,2.572 .544,4.419zm18.752-32.62v23.221c0,1.601-1.32,2.903-2.942,2.903h-40.326c-1.622,0-2.941-1.303-2.941-2.903v-23.221c0-1.601 1.319-2.903 2.941-2.903h40.326c1.622,0 2.942,1.302 2.942,2.903z"/>
<path d="m11.602,18.815v19.753c0,.297 .24,.538 .537,.538h39.719c.297,0 .538-.241 .538-.538v-19.753c0-.297-.241-.537-.538-.537h-39.718c-.297-0-.538,.241-.538,.537zm1.075,.538h38.644v18.679h-38.644v-18.679z"/>
<path d="m32.607,40.861c-.914,0-1.658,.744-1.658,1.658 0,.914 .744,1.658 1.658,1.658 .914,0 1.658-.744 1.658-1.658 .001-.914-.744-1.658-1.658-1.658zm0,2.567c-.501,0-.908-.407-.908-.908 0-.501 .407-.908 .908-.908 .501,0 .908,.407 .908,.908 .001,.501-.407,.908-.908,.908z"/>
</svg>
