<?xml version="1.0" encoding="utf-8"?>
<!-- Generator: Adobe Illustrator 17.0.0, SVG Export Plug-In . SVG Version: 6.00 Build 0)  -->
<!DOCTYPE svg PUBLIC "-//W3C//DTD SVG 1.1//EN" "http://www.w3.org/Graphics/SVG/1.1/DTD/svg11.dtd">
<svg version="1.1" id="Capa_1" xmlns="http://www.w3.org/2000/svg" xmlns:xlink="http://www.w3.org/1999/xlink" x="0px" y="0px"
	 width="64px" height="64px" viewBox="0 0 64 64" enable-background="new 0 0 64 64" xml:space="preserve">
<path d="M32.002,54.947c-1.11,0-2.014,0.902-2.014,2.014c0,1.109,0.903,2.012,2.014,2.012c1.11,0,2.012-0.902,2.012-2.012
	C34.014,55.85,33.112,54.947,32.002,54.947z M32.002,58.313c-0.748,0-1.356-0.608-1.356-1.353c0-0.747,0.607-1.355,1.356-1.355
	c0.746,0,1.354,0.608,1.354,1.355C33.356,57.705,32.748,58.313,32.002,58.313z M47.473,9.774H16.526
	c-0.372,0-0.672,0.241-0.672,0.54v42.909c0,0.298,0.3,0.54,0.672,0.54h30.947c0.373,0,0.674-0.242,0.674-0.54V10.314
	C48.147,10.015,47.846,9.774,47.473,9.774z M46.802,52.683H17.199V10.852h29.603V52.683z M47.074,1.9H16.928
	c-3.383,0-6.136,2.887-6.136,6.436v47.329c0,3.549,2.753,6.436,6.136,6.436h30.146c3.383,0,6.136-2.887,6.136-6.436V8.336
	C53.21,4.788,50.457,1.9,47.074,1.9z M51.097,55.665c0,2.384-1.805,4.322-4.024,4.322H16.928c-2.219,0-4.023-1.938-4.023-4.322
	V8.336h-0.001c0-2.384,1.805-4.323,4.023-4.323h30.146c2.219,0,4.024,1.939,4.024,4.323V55.665z M30.976,6.894
	c0-0.566,0.459-1.025,1.025-1.025c0.566,0,1.025,0.459,1.025,1.025s-0.459,1.025-1.025,1.025C31.435,7.919,30.976,7.46,30.976,6.894
	z"/>
</svg>
